<svg width="24" height="24" viewBox="0 0 24 24" fill="none" xmlns="http://www.w3.org/2000/svg">
<path d="M12 16H4C3.46957 16 2.96086 15.7893 2.58579 15.4142C2.21071 15.0391 2 14.5304 2 14C2 13.4696 2.21071 12.9609 2.58579 12.5858C2.96086 12.2107 3.46957 12 4 12H20C20.5304 12 21.0391 12.2107 21.4142 12.5858C21.7893 12.9609 22 13.4696 22 14C22 14.5304 21.7893 15.0391 21.4142 15.4142C21.0391 15.7893 20.5304 16 20 16H15.75" stroke="#E53E3E" stroke-width="2" stroke-linecap="round" stroke-linejoin="round"/>
<path d="M5 12C4.46957 12 3.96086 11.7893 3.58579 11.4142C3.21071 11.0391 3 10.5304 3 10C3 8.14348 3.94821 6.36301 5.63604 5.05025C7.32387 3.7375 9.61305 3 12 3C14.3869 3 16.6761 3.7375 18.364 5.05025C20.0518 6.36301 21 8.14348 21 10C21 10.5304 20.7893 11.0391 20.4142 11.4142C20.0391 11.7893 19.5304 12 19 12" stroke="#E53E3E" stroke-width="2" stroke-linecap="round" stroke-linejoin="round"/>
<path d="M5 16C4.46957 16 3.96086 16.2107 3.58579 16.5858C3.21071 16.9609 3 17.4696 3 18C3 18.7956 3.31607 19.5587 3.87868 20.1213C4.44129 20.6839 5.20435 21 6 21H18C18.7956 21 19.5587 20.6839 20.1213 20.1213C20.6839 19.5587 21 18.7956 21 18C21 17.4696 20.7893 16.9609 20.4142 16.5858C20.0391 16.2107 19.5304 16 19 16" stroke="#E53E3E" stroke-width="2" stroke-linecap="round" stroke-linejoin="round"/>
<path d="M6.66998 12L12.8 16.6C13.2243 16.9183 13.7577 17.0549 14.2828 16.9799C14.5428 16.9428 14.793 16.8548 15.019 16.7209C15.245 16.5871 15.4424 16.4101 15.6 16.2L18.75 12" stroke="#E53E3E" stroke-width="2" stroke-linecap="round" stroke-linejoin="round"/>
</svg>
